<svg id="svg" version="1.1" xmlns="http://www.w3.org/2000/svg" xmlns:xlink="http://www.w3.org/1999/xlink" width="400" height="264" viewBox="0, 0, 400,264"><g id="svgg"><path id="path0" d="M193.531 12.329 C 189.678 12.483,181.372 13.493,177.690 14.256 C 171.928 15.450,169.594 16.009,166.469 16.942 C 163.773 17.746,158.927 19.348,157.665 19.852 C 145.657 24.645,137.657 29.079,127.921 36.336 C 120.980 41.510,116.094 46.086,108.924 54.125 C 107.778 55.410,103.778 60.453,103.270 61.254 C 103.039 61.617,102.780 61.974,102.694 62.046 C 100.887 63.572,92.567 78.292,89.935 84.620 C 89.392 85.927,88.844 87.234,88.717 87.525 C 85.868 94.060,82.091 108.180,81.442 114.719 C 81.356 115.591,81.175 116.838,81.040 117.492 C 80.684 119.210,80.008 131.792,80.146 134.125 C 80.620 142.159,80.849 145.290,81.064 146.667 C 81.200 147.538,81.426 149.083,81.566 150.099 C 81.959 152.949,82.352 155.275,82.637 156.436 C 82.780 157.017,83.143 158.561,83.444 159.868 C 84.645 165.083,87.545 174.054,89.502 178.614 C 92.068 184.590,98.100 195.535,101.238 199.910 C 101.828 200.731,102.488 201.663,102.706 201.980 C 105.034 205.373,110.301 211.589,114.364 215.740 C 126.490 228.131,139.758 236.943,156.436 243.681 C 156.726 243.799,157.306 244.033,157.725 244.202 C 158.851 244.656,164.680 246.578,166.205 246.997 C 166.931 247.196,168.356 247.589,169.373 247.869 C 185.383 252.287,206.935 253.064,222.310 249.778 C 226.517 248.879,227.641 248.632,229.175 248.274 C 240.126 245.714,254.630 239.458,264.290 233.127 C 265.380 232.413,266.449 231.743,266.667 231.639 C 269.185 230.430,279.141 222.222,284.342 217.067 C 287.512 213.926,288.736 212.604,292.078 208.713 C 294.854 205.480,303.102 193.874,303.102 193.199 C 303.102 193.116,303.617 192.176,304.245 191.111 C 305.750 188.562,310.759 178.317,310.759 177.788 C 310.759 177.705,310.927 177.263,311.132 176.806 C 314.049 170.291,317.164 158.878,318.422 150.099 C 318.568 149.083,318.806 147.538,318.951 146.667 C 319.920 140.856,320.042 127.851,319.200 120.000 C 318.677 115.114,318.415 113.106,318.168 112.079 C 318.028 111.498,317.842 110.429,317.754 109.703 C 317.667 108.977,317.495 108.026,317.373 107.591 C 317.250 107.155,316.953 105.908,316.711 104.818 C 315.436 99.059,312.213 89.184,310.120 84.620 C 307.555 79.027,304.793 73.665,302.844 70.495 C 299.484 65.031,296.786 61.086,294.631 58.488 C 294.387 58.194,292.957 56.469,291.453 54.653 C 285.267 47.187,273.536 36.660,266.525 32.284 C 254.254 24.623,243.949 19.821,233.795 17.030 C 233.069 16.830,231.644 16.437,230.627 16.157 C 219.519 13.092,206.948 11.795,193.531 12.329 M209.728 32.705 C 216.719 33.338,227.981 35.808,232.739 37.752 C 233.030 37.871,234.040 38.242,234.983 38.576 C 235.927 38.910,236.997 39.336,237.360 39.524 C 237.723 39.711,238.101 39.865,238.199 39.866 C 238.298 39.867,239.189 40.231,240.180 40.674 C 256.116 47.809,269.609 58.577,280.033 72.475 C 281.928 75.003,285.037 79.661,285.583 80.792 C 285.688 81.010,286.222 81.923,286.769 82.822 C 287.752 84.438,291.749 92.433,291.749 92.784 C 291.749 92.884,291.971 93.465,292.243 94.074 C 292.514 94.683,293.121 96.251,293.590 97.558 C 294.060 98.865,294.540 100.172,294.657 100.462 C 295.404 102.314,297.379 109.911,297.973 113.220 C 298.382 115.498,298.540 116.506,299.195 121.056 C 299.420 122.616,299.538 126.380,299.538 132.013 C 299.538 137.647,299.420 141.410,299.195 142.970 C 298.540 147.520,298.382 148.529,297.973 150.806 C 297.379 154.116,295.404 161.712,294.657 163.564 C 294.540 163.855,294.060 165.162,293.590 166.469 C 293.121 167.776,292.514 169.343,292.243 169.953 C 291.971 170.562,291.749 171.142,291.749 171.242 C 291.749 171.594,287.752 179.588,286.769 181.204 C 286.222 182.103,285.688 183.017,285.583 183.234 C 285.037 184.365,281.928 189.024,280.033 191.551 C 269.611 205.447,256.113 216.218,240.180 223.352 C 239.189 223.796,238.298 224.159,238.199 224.160 C 238.101 224.161,237.723 224.315,237.360 224.503 C 236.997 224.690,235.927 225.117,234.983 225.451 C 234.040 225.785,233.030 226.153,232.739 226.268 C 231.709 226.679,229.798 227.271,226.931 228.068 C 222.539 229.288,220.877 229.647,214.506 230.752 C 207.470 231.973,192.530 231.973,185.494 230.752 C 179.123 229.647,177.461 229.288,173.069 228.068 C 170.202 227.271,168.291 226.679,167.261 226.268 C 166.970 226.153,165.960 225.785,165.017 225.451 C 164.073 225.117,163.003 224.690,162.640 224.503 C 162.277 224.315,161.899 224.161,161.801 224.160 C 161.702 224.159,160.811 223.796,159.820 223.352 C 143.884 216.217,130.391 205.449,119.967 191.551 C 118.072 189.024,114.963 184.365,114.417 183.234 C 114.312 183.017,113.778 182.103,113.231 181.204 C 112.248 179.588,108.251 171.594,108.251 171.242 C 108.251 171.142,108.029 170.562,107.757 169.953 C 107.486 169.343,106.879 167.776,106.410 166.469 C 105.940 165.162,105.460 163.855,105.343 163.564 C 104.596 161.712,102.621 154.116,102.027 150.806 C 101.618 148.529,101.460 147.520,100.805 142.970 C 100.580 141.410,100.462 137.647,100.462 132.013 C 100.462 126.380,100.580 122.616,100.805 121.056 C 101.460 116.506,101.618 115.498,102.027 113.220 C 102.621 109.911,104.596 102.314,105.343 100.462 C 105.460 100.172,105.940 98.865,106.410 97.558 C 106.879 96.251,107.486 94.683,107.757 94.074 C 108.029 93.465,108.251 92.884,108.251 92.784 C 108.251 92.433,112.248 84.438,113.231 82.822 C 113.778 81.923,114.312 81.010,114.417 80.792 C 114.963 79.661,118.072 75.003,119.967 72.475 C 130.365 58.611,143.925 47.781,159.738 40.712 C 160.683 40.290,161.753 39.853,162.115 39.742 C 162.476 39.630,162.891 39.454,163.036 39.351 C 163.182 39.247,164.073 38.893,165.017 38.565 C 165.960 38.237,166.970 37.874,167.261 37.758 C 170.051 36.647,177.198 34.758,181.650 33.956 C 186.452 33.091,187.209 32.988,190.769 32.720 C 192.790 32.567,194.506 32.379,194.582 32.302 C 194.784 32.094,206.395 32.404,209.728 32.705 M194.151 40.006 C 189.300 40.325,187.777 40.510,183.102 41.345 C 156.956 46.017,132.719 63.298,119.815 86.469 C 117.632 90.388,114.851 96.034,114.851 96.546 C 114.851 96.623,114.690 97.060,114.493 97.518 C 111.854 103.635,109.354 113.143,108.513 120.264 C 107.104 132.198,107.833 144.012,110.648 154.851 C 111.412 157.793,111.666 158.644,112.644 161.543 C 113.559 164.255,113.802 164.909,114.493 166.509 C 114.690 166.966,114.851 167.403,114.851 167.480 C 114.851 167.557,115.216 168.430,115.662 169.421 C 126.257 192.959,145.916 210.968,170.033 219.226 C 175.682 221.160,180.106 222.233,187.099 223.363 C 193.405 224.382,206.923 224.397,212.763 223.390 C 213.585 223.248,215.386 222.938,216.766 222.700 C 219.380 222.249,221.089 221.856,224.422 220.938 C 251.067 213.602,272.903 194.827,284.338 169.421 C 284.784 168.430,285.149 167.557,285.149 167.480 C 285.149 167.403,285.310 166.966,285.507 166.509 C 288.146 160.392,290.646 150.884,291.487 143.762 C 292.896 131.828,292.167 120.014,289.352 109.175 C 288.588 106.234,288.334 105.382,287.356 102.483 C 286.441 99.772,286.198 99.118,285.507 97.518 C 285.310 97.060,285.149 96.623,285.149 96.546 C 285.149 96.469,284.784 95.596,284.338 94.606 C 272.903 69.199,251.067 50.425,224.422 43.088 C 221.089 42.170,219.380 41.777,216.766 41.326 C 215.386 41.089,213.587 40.778,212.768 40.637 C 211.524 40.423,199.754 39.553,199.340 39.644 C 199.267 39.660,196.932 39.823,194.151 40.006 M260.066 91.353 C 260.066 91.498,259.976 91.617,259.865 91.617 C 259.755 91.617,259.369 91.889,259.007 92.220 C 258.646 92.552,257.399 93.558,256.238 94.456 C 255.076 95.353,253.102 96.894,251.851 97.879 C 250.600 98.864,248.284 100.672,246.703 101.897 C 245.122 103.121,243.769 104.197,243.696 104.288 C 243.624 104.379,242.614 105.183,241.452 106.076 C 237.864 108.835,233.277 112.420,229.717 115.248 C 228.620 116.120,226.653 117.659,225.347 118.668 C 224.040 119.677,222.911 120.575,222.838 120.663 C 222.766 120.750,221.696 121.585,220.462 122.518 C 219.228 123.451,217.980 124.414,217.690 124.660 C 216.879 125.344,213.205 128.243,210.561 130.285 C 209.254 131.294,208.125 132.191,208.053 132.277 C 207.980 132.363,207.149 133.021,206.205 133.738 C 205.261 134.455,203.556 135.786,202.417 136.695 C 199.935 138.678,200.021 138.670,198.100 137.091 C 197.257 136.398,194.667 134.350,192.343 132.539 C 190.020 130.728,187.881 129.046,187.591 128.802 C 187.033 128.333,183.480 125.554,180.054 122.904 C 176.883 120.452,167.324 112.933,166.733 112.426 C 166.442 112.176,165.533 111.462,164.712 110.838 C 162.476 109.138,152.495 101.304,152.343 101.129 C 152.271 101.045,151.677 100.570,151.023 100.073 C 149.690 99.060,144.748 95.194,141.866 92.910 C 140.822 92.083,140.040 91.335,140.127 91.248 C 140.414 90.961,260.066 91.066,260.066 91.353 M139.759 93.927 C 140.831 94.762,142.992 96.455,144.561 97.690 C 148.831 101.048,152.750 104.109,155.116 105.932 C 156.277 106.828,157.287 107.630,157.360 107.715 C 157.432 107.800,158.561 108.696,159.868 109.707 C 161.175 110.718,162.482 111.744,162.772 111.989 C 163.297 112.430,166.386 114.850,170.303 117.888 C 171.427 118.759,173.625 120.482,175.188 121.716 C 176.751 122.950,179.052 124.768,180.302 125.755 C 181.552 126.742,183.548 128.286,184.738 129.187 C 187.829 131.527,187.877 131.197,184.026 134.131 C 182.792 135.072,181.652 135.960,181.493 136.106 C 181.334 136.251,179.683 137.558,177.825 139.010 C 174.420 141.671,171.093 144.282,163.690 150.099 C 157.838 154.699,154.765 157.108,150.389 160.528 C 148.252 162.198,145.234 164.576,143.681 165.812 C 137.721 170.556,136.215 171.652,135.770 171.566 C 135.332 171.481,134.872 93.874,135.303 92.739 C 135.658 91.807,137.756 92.367,139.759 93.927 M264.686 132.010 C 264.686 176.649,264.915 172.584,262.518 170.646 C 261.831 170.091,261.088 169.491,260.866 169.313 C 260.123 168.717,254.678 164.484,252.541 162.842 C 251.380 161.949,250.370 161.144,250.297 161.054 C 250.224 160.963,248.872 159.887,247.291 158.662 C 245.710 157.438,243.393 155.630,242.142 154.645 C 240.891 153.661,238.467 151.760,236.754 150.421 C 235.041 149.082,232.888 147.393,231.968 146.667 C 231.049 145.941,229.006 144.341,227.429 143.113 C 225.853 141.884,224.323 140.675,224.030 140.425 C 223.738 140.176,222.488 139.186,221.254 138.226 C 215.750 133.945,213.747 132.378,213.229 131.946 L 212.673 131.483 213.611 130.626 C 214.127 130.155,216.077 128.581,217.944 127.129 C 221.689 124.216,223.828 122.541,227.591 119.575 C 228.970 118.488,230.931 116.953,231.947 116.165 C 232.964 115.377,233.855 114.663,233.927 114.579 C 234.000 114.494,235.069 113.667,236.304 112.739 C 237.538 111.812,238.607 110.981,238.680 110.893 C 238.818 110.726,248.497 103.117,250.982 101.223 C 251.766 100.625,252.862 99.766,253.417 99.313 C 253.972 98.861,255.428 97.711,256.652 96.758 C 260.377 93.859,260.679 93.618,261.375 93.004 C 261.910 92.532,262.315 92.425,263.366 92.476 L 264.686 92.541 264.686 132.010 M193.563 136.172 C 200.821 141.924,199.631 141.574,202.955 138.929 C 208.581 134.451,209.747 133.537,210.322 133.161 C 210.839 132.822,218.163 137.924,219.670 139.673 C 219.743 139.758,220.574 140.413,221.518 141.130 C 222.462 141.847,224.136 143.149,225.239 144.022 C 226.342 144.896,228.766 146.799,230.626 148.251 C 232.487 149.703,234.139 151.014,234.298 151.163 C 234.457 151.313,235.360 152.018,236.304 152.729 C 237.248 153.440,239.089 154.872,240.396 155.910 C 241.703 156.947,243.967 158.738,245.428 159.888 C 246.888 161.039,248.492 162.303,248.992 162.697 C 251.997 165.065,256.002 168.171,257.877 169.586 C 259.069 170.485,260.049 171.310,260.055 171.419 C 260.061 171.528,233.029 171.617,199.984 171.617 C 159.393 171.617,139.957 171.530,140.069 171.349 C 140.160 171.202,141.384 170.196,142.790 169.115 C 146.593 166.191,149.767 163.716,150.363 163.210 C 150.921 162.737,160.227 155.425,163.690 152.739 C 164.813 151.868,166.967 150.183,168.477 148.995 C 171.081 146.944,174.486 144.267,178.635 141.007 C 179.663 140.199,181.624 138.665,182.991 137.598 C 184.359 136.532,185.941 135.284,186.507 134.826 C 187.765 133.808,189.116 132.805,189.230 132.805 C 189.277 132.805,191.226 134.320,193.563 136.172 " stroke="none" fill="#fb2c04" fill-rule="evenodd"></path><path id="path1" d="M0.000 132.013 L 0.000 264.026 200.000 264.026 L 400.000 264.026 400.000 132.013 L 400.000 0.000 200.000 0.000 L 0.000 0.000 0.000 132.013 M212.541 12.496 C 220.227 13.470,222.328 13.806,226.799 14.773 C 228.098 15.054,228.761 15.233,231.683 16.088 C 232.119 16.216,233.366 16.579,234.455 16.896 C 236.313 17.437,238.122 18.019,239.340 18.469 C 239.630 18.576,240.521 18.873,241.320 19.128 C 242.119 19.384,243.523 19.937,244.441 20.357 C 245.359 20.778,246.208 21.122,246.328 21.122 C 246.448 21.122,247.265 21.479,248.143 21.914 C 249.021 22.350,249.861 22.706,250.010 22.706 C 250.413 22.706,259.483 27.373,259.802 27.745 C 259.874 27.830,260.825 28.413,261.914 29.041 C 264.414 30.482,268.355 33.059,268.471 33.327 C 268.519 33.440,268.671 33.531,268.809 33.531 C 268.946 33.531,269.679 34.015,270.437 34.607 C 271.195 35.198,272.225 36.000,272.726 36.389 C 283.442 44.702,293.342 55.152,299.533 64.686 C 300.524 66.211,301.850 68.247,302.482 69.210 C 303.114 70.174,303.630 71.095,303.630 71.257 C 303.630 71.419,303.749 71.551,303.894 71.551 C 304.040 71.551,304.158 71.665,304.158 71.804 C 304.158 71.942,304.494 72.626,304.904 73.322 C 305.831 74.894,307.879 78.899,308.657 80.660 C 308.978 81.386,309.701 82.944,310.264 84.122 C 310.827 85.300,311.287 86.400,311.287 86.568 C 311.287 86.735,311.400 87.078,311.538 87.330 C 312.027 88.222,312.557 89.684,313.906 93.861 C 316.287 101.231,316.526 102.018,316.804 103.366 C 316.954 104.092,317.261 105.518,317.487 106.535 C 318.005 108.869,318.590 112.511,319.092 116.536 C 319.307 118.262,319.532 119.752,319.592 119.849 C 320.481 121.287,320.120 141.805,319.093 148.251 C 318.521 151.845,317.923 155.172,317.479 157.228 C 317.260 158.244,316.917 159.848,316.718 160.792 C 316.218 163.155,315.780 164.808,315.526 165.291 C 315.409 165.514,315.228 166.197,315.125 166.807 C 315.022 167.418,314.829 167.985,314.696 168.067 C 314.564 168.149,314.455 168.399,314.455 168.623 C 314.455 168.846,314.288 169.403,314.083 169.861 C 313.878 170.319,313.467 171.406,313.171 172.277 C 312.874 173.149,312.381 174.515,312.073 175.314 C 311.766 176.112,311.359 177.182,311.168 177.690 C 310.556 179.323,309.198 182.201,306.871 186.799 C 305.621 189.267,304.470 191.554,304.313 191.879 C 304.155 192.205,303.937 192.472,303.828 192.473 C 303.719 192.474,303.630 192.624,303.629 192.805 C 303.628 193.085,301.044 197.256,299.826 198.944 C 299.616 199.234,298.764 200.482,297.932 201.716 C 292.386 209.942,281.681 221.008,272.818 227.676 C 271.337 228.791,270.013 229.703,269.876 229.703 C 269.739 229.703,269.559 229.881,269.475 230.099 C 269.392 230.317,269.151 230.495,268.941 230.495 C 268.731 230.495,268.519 230.589,268.471 230.705 C 268.345 231.005,262.605 234.771,260.726 235.786 C 254.432 239.185,250.306 241.320,250.030 241.320 C 249.880 241.320,249.018 241.670,248.113 242.099 C 247.209 242.527,245.043 243.421,243.300 244.085 C 241.558 244.749,239.950 245.394,239.727 245.517 C 239.505 245.640,238.915 245.831,238.416 245.941 C 237.917 246.050,237.327 246.236,237.104 246.355 C 236.505 246.673,233.114 247.657,232.616 247.657 C 232.379 247.657,232.072 247.762,231.934 247.891 C 231.796 248.021,231.030 248.253,230.231 248.408 C 229.432 248.563,227.977 248.873,226.997 249.098 C 226.017 249.322,224.413 249.686,223.432 249.907 C 221.533 250.336,218.454 250.788,212.277 251.544 C 208.268 252.035,195.152 252.205,190.363 251.827 C 186.367 251.512,182.828 251.086,180.831 250.682 C 179.757 250.464,178.106 250.169,177.162 250.026 C 174.851 249.676,170.356 248.617,168.185 247.911 C 167.822 247.793,166.634 247.439,165.545 247.125 C 163.665 246.583,161.824 245.991,160.660 245.555 C 160.370 245.446,159.260 245.073,158.193 244.726 C 157.127 244.379,156.199 244.005,156.131 243.895 C 156.064 243.786,155.825 243.696,155.602 243.696 C 155.378 243.696,154.821 243.527,154.363 243.320 C 153.906 243.113,152.878 242.653,152.079 242.297 C 148.452 240.680,140.558 236.687,140.200 236.286 C 140.126 236.204,138.997 235.499,137.690 234.720 C 134.818 233.008,128.120 228.480,127.525 227.850 C 127.452 227.773,126.561 227.062,125.545 226.271 C 119.611 221.650,111.973 214.191,107.293 208.449 C 100.657 200.305,94.540 190.575,90.695 182.046 C 90.302 181.175,89.696 179.856,89.347 179.116 C 88.998 178.375,88.713 177.631,88.713 177.462 C 88.713 177.293,88.598 176.948,88.458 176.696 C 87.923 175.734,87.129 173.742,87.129 173.363 C 87.129 173.146,87.023 172.903,86.895 172.824 C 86.766 172.744,86.580 172.247,86.481 171.720 C 86.382 171.192,86.202 170.567,86.082 170.331 C 85.962 170.094,85.599 168.950,85.276 167.789 C 84.952 166.627,84.586 165.380,84.462 165.017 C 83.217 161.368,81.494 153.217,81.058 148.911 C 80.918 147.531,80.674 145.709,80.516 144.861 C 78.858 135.981,80.182 116.318,83.311 103.366 C 83.557 102.350,83.893 100.924,84.058 100.198 C 84.223 99.472,84.433 98.759,84.525 98.614 C 84.617 98.469,84.775 97.846,84.877 97.229 C 84.979 96.613,85.161 96.048,85.281 95.974 C 85.400 95.899,85.579 95.365,85.677 94.785 C 85.774 94.206,85.950 93.673,86.066 93.602 C 86.182 93.530,86.358 93.039,86.457 92.512 C 86.556 91.984,86.734 91.359,86.853 91.123 C 87.282 90.272,87.909 88.807,88.732 86.733 C 89.192 85.571,89.782 84.086,90.043 83.432 C 90.711 81.756,94.858 73.722,96.113 71.671 C 96.690 70.729,97.162 69.890,97.162 69.807 C 97.162 69.654,99.511 65.978,100.126 65.168 C 100.311 64.925,101.175 63.689,102.046 62.423 C 108.805 52.599,122.315 39.063,130.221 34.191 C 130.457 34.046,132.286 32.815,134.286 31.455 C 136.285 30.095,138.553 28.640,139.324 28.221 C 140.095 27.802,141.409 27.087,142.244 26.634 C 144.028 25.664,150.482 22.428,151.815 21.835 C 154.636 20.581,155.239 20.330,155.437 20.330 C 155.715 20.330,159.734 18.822,160.273 18.515 C 160.495 18.389,161.085 18.195,161.584 18.086 C 162.083 17.976,162.673 17.790,162.896 17.672 C 163.495 17.353,166.886 16.370,167.384 16.370 C 167.621 16.370,167.928 16.264,168.066 16.135 C 168.204 16.006,168.970 15.773,169.769 15.618 C 170.568 15.463,172.053 15.144,173.069 14.910 C 174.086 14.676,175.749 14.327,176.766 14.135 C 177.782 13.943,179.564 13.596,180.726 13.365 C 183.155 12.882,187.128 12.426,190.339 12.263 C 191.560 12.201,192.626 12.082,192.710 11.999 C 193.033 11.675,209.279 12.082,212.541 12.496 M192.211 32.890 C 184.908 33.513,176.573 35.054,171.617 36.697 C 171.254 36.817,170.066 37.186,168.977 37.517 C 167.888 37.848,166.884 38.216,166.746 38.333 C 166.608 38.451,166.329 38.548,166.126 38.548 C 165.923 38.548,165.382 38.721,164.924 38.932 C 164.467 39.143,163.439 39.566,162.640 39.871 C 144.599 46.772,128.002 60.578,116.142 78.551 C 113.389 82.723,108.936 91.516,107.319 95.974 C 107.055 96.700,106.755 97.413,106.652 97.558 C 106.548 97.703,106.377 98.238,106.271 98.746 C 106.164 99.254,105.997 99.789,105.899 99.934 C 105.525 100.488,103.825 106.507,102.878 110.627 C 101.272 117.615,100.746 122.894,100.746 132.013 C 100.746 141.133,101.272 146.411,102.878 153.399 C 103.825 157.519,105.525 163.538,105.899 164.092 C 105.997 164.238,106.164 164.772,106.271 165.281 C 106.377 165.789,106.548 166.323,106.652 166.469 C 106.755 166.614,107.055 167.327,107.319 168.053 C 113.892 186.174,128.458 204.038,146.007 215.501 C 151.133 218.850,157.691 222.262,162.640 224.155 C 163.439 224.461,164.467 224.883,164.924 225.095 C 165.382 225.306,165.923 225.479,166.126 225.479 C 166.329 225.479,166.608 225.575,166.746 225.693 C 166.884 225.811,167.888 226.178,168.977 226.509 C 170.066 226.840,171.254 227.209,171.617 227.330 C 187.778 232.687,212.222 232.687,228.383 227.330 C 228.746 227.209,229.934 226.840,231.023 226.509 C 232.112 226.178,233.116 225.811,233.254 225.693 C 233.392 225.575,233.671 225.479,233.874 225.479 C 234.077 225.479,234.618 225.306,235.076 225.095 C 235.533 224.883,236.561 224.461,237.360 224.155 C 255.401 217.254,271.998 203.448,283.858 185.476 C 286.611 181.304,291.064 172.510,292.681 168.053 C 292.945 167.327,293.245 166.614,293.348 166.469 C 293.452 166.323,293.623 165.789,293.729 165.281 C 293.836 164.772,294.003 164.238,294.101 164.092 C 294.475 163.538,296.175 157.519,297.122 153.399 C 298.728 146.411,299.254 141.133,299.254 132.013 C 299.254 122.894,298.728 117.615,297.122 110.627 C 296.175 106.507,294.475 100.488,294.101 99.934 C 294.003 99.789,293.836 99.254,293.729 98.746 C 293.623 98.238,293.452 97.703,293.348 97.558 C 293.245 97.413,292.945 96.700,292.681 95.974 C 286.108 77.852,271.542 59.988,253.993 48.525 C 248.867 45.176,242.309 41.765,237.360 39.871 C 236.561 39.566,235.533 39.143,235.076 38.932 C 234.618 38.721,234.077 38.548,233.874 38.548 C 233.671 38.548,233.392 38.451,233.254 38.333 C 233.116 38.216,232.112 37.848,231.023 37.517 C 229.934 37.186,228.746 36.817,228.383 36.697 C 218.638 33.467,203.776 31.903,192.211 32.890 M208.581 39.868 C 226.013 41.572,244.034 48.631,256.362 58.585 C 258.576 60.372,258.842 60.595,260.967 62.442 C 264.043 65.115,267.304 68.414,270.769 72.355 C 272.077 73.843,276.239 79.451,277.618 81.584 C 280.653 86.278,284.061 92.863,285.954 97.690 C 286.267 98.488,286.628 99.380,286.755 99.670 C 286.974 100.169,288.025 103.366,288.925 106.271 C 289.149 106.997,289.582 108.660,289.886 109.967 C 290.190 111.274,290.502 112.581,290.578 112.871 C 290.655 113.162,290.887 114.409,291.095 115.644 C 291.447 117.733,291.607 118.980,292.283 124.902 C 292.425 126.147,292.541 129.346,292.541 132.013 C 292.541 134.680,292.425 137.880,292.283 139.124 C 291.607 145.047,291.447 146.294,291.095 148.383 C 290.887 149.617,290.655 150.865,290.578 151.155 C 290.502 151.446,290.190 152.752,289.886 154.059 C 289.582 155.366,289.149 157.030,288.925 157.756 C 288.025 160.660,286.974 163.857,286.755 164.356 C 286.628 164.647,286.267 165.538,285.954 166.337 C 282.651 174.759,276.253 185.433,270.769 191.671 C 267.304 195.613,264.043 198.911,260.967 201.584 C 258.842 203.431,258.576 203.654,256.362 205.442 C 225.199 230.603,174.801 230.603,143.638 205.442 C 141.424 203.654,141.158 203.431,139.033 201.584 C 135.957 198.911,132.696 195.613,129.231 191.671 C 127.923 190.184,123.761 184.576,122.382 182.442 C 119.347 177.749,115.939 171.164,114.046 166.337 C 113.733 165.538,113.372 164.647,113.245 164.356 C 113.026 163.857,111.975 160.660,111.075 157.756 C 110.851 157.030,110.418 155.366,110.114 154.059 C 109.810 152.752,109.498 151.446,109.422 151.155 C 109.345 150.865,109.113 149.617,108.905 148.383 C 108.553 146.294,108.393 145.047,107.717 139.124 C 107.384 136.208,107.384 127.818,107.717 124.902 C 108.393 118.980,108.553 117.733,108.905 115.644 C 109.113 114.409,109.345 113.162,109.422 112.871 C 109.498 112.581,109.810 111.274,110.114 109.967 C 110.418 108.660,110.851 106.997,111.075 106.271 C 111.975 103.366,113.026 100.169,113.245 99.670 C 113.372 99.380,113.733 98.488,114.046 97.690 C 117.349 89.267,123.747 78.593,129.231 72.355 C 132.696 68.414,135.957 65.115,139.033 62.442 C 141.158 60.595,141.424 60.372,143.638 58.585 C 160.369 45.076,186.072 37.668,208.581 39.868 M143.824 94.059 C 145.711 95.548,148.245 97.538,149.455 98.482 C 152.567 100.908,158.113 105.264,159.208 106.140 C 159.716 106.547,161.201 107.712,162.508 108.730 C 163.815 109.747,166.132 111.563,167.657 112.765 C 171.054 115.443,173.318 117.215,177.055 120.122 C 178.634 121.350,180.165 122.560,180.458 122.809 C 180.751 123.058,181.961 124.014,183.147 124.932 C 187.722 128.472,194.726 133.970,194.851 134.119 C 195.012 134.310,199.344 137.632,199.790 137.907 C 199.985 138.027,201.255 137.203,203.063 135.784 C 204.689 134.509,207.278 132.475,208.818 131.264 C 210.357 130.053,212.568 128.337,213.729 127.450 C 214.891 126.564,215.901 125.767,215.974 125.678 C 216.105 125.518,224.999 118.524,228.902 115.512 C 230.031 114.640,233.358 112.026,236.295 109.703 C 239.232 107.380,242.558 104.766,243.684 103.894 C 247.144 101.219,250.666 98.463,251.221 97.996 C 251.512 97.751,252.818 96.724,254.125 95.714 C 255.432 94.703,256.561 93.810,256.634 93.730 C 256.706 93.650,257.300 93.180,257.954 92.685 C 258.607 92.191,259.255 91.690,259.393 91.570 C 259.531 91.451,232.812 91.353,200.019 91.353 L 140.394 91.353 143.824 94.059 M135.710 132.046 C 135.710 163.711,135.776 171.632,136.040 171.433 C 136.929 170.761,139.025 169.092,139.142 168.962 C 139.215 168.881,140.224 168.083,141.386 167.189 C 142.548 166.294,144.522 164.757,145.773 163.771 C 147.023 162.786,149.338 160.975,150.917 159.746 C 152.496 158.518,154.027 157.305,154.319 157.053 C 154.612 156.800,155.520 156.082,156.337 155.458 C 157.626 154.474,164.403 149.158,171.851 143.290 C 173.102 142.305,175.314 140.587,176.766 139.474 C 178.218 138.360,179.537 137.325,179.697 137.174 C 179.857 137.022,181.562 135.660,183.486 134.147 C 186.848 131.503,186.964 131.380,186.460 130.979 C 184.223 129.199,173.892 121.091,172.706 120.185 C 171.890 119.561,170.982 118.844,170.689 118.591 C 170.397 118.338,168.865 117.126,167.287 115.897 C 165.708 114.669,163.393 112.857,162.142 111.872 C 160.891 110.887,158.917 109.349,157.756 108.455 C 156.594 107.561,155.584 106.755,155.512 106.664 C 155.439 106.574,154.086 105.498,152.505 104.273 C 150.924 103.048,148.608 101.240,147.357 100.254 C 146.106 99.268,143.954 97.591,142.574 96.527 C 141.195 95.463,139.474 94.102,138.751 93.501 C 137.801 92.712,137.196 92.409,136.572 92.409 L 135.710 92.409 135.710 132.046 M261.782 93.093 C 260.837 93.885,256.318 97.454,253.453 99.670 C 252.327 100.541,247.934 103.987,243.691 107.327 C 239.449 110.667,234.758 114.350,233.267 115.512 C 231.777 116.673,228.375 119.341,225.707 121.440 C 223.040 123.539,219.729 126.136,218.350 127.212 C 216.970 128.287,215.382 129.537,214.821 129.989 C 214.260 130.441,213.627 130.938,213.415 131.093 C 213.100 131.323,213.338 131.616,214.699 132.674 C 215.618 133.388,216.429 134.042,216.502 134.126 C 216.574 134.210,217.881 135.246,219.406 136.427 C 224.049 140.024,230.332 144.948,230.891 145.428 C 231.182 145.677,232.191 146.467,233.135 147.184 C 234.079 147.900,235.683 149.157,236.700 149.976 C 237.716 150.796,241.340 153.642,244.752 156.302 C 248.165 158.961,251.670 161.703,252.541 162.396 C 259.106 167.611,263.925 171.347,264.092 171.350 C 264.201 171.352,264.290 153.591,264.290 131.881 L 264.290 92.409 263.432 92.419 C 262.912 92.424,262.262 92.690,261.782 93.093 M185.875 135.740 C 184.205 137.060,181.888 138.864,180.726 139.749 C 179.564 140.633,178.554 141.428,178.482 141.516 C 178.338 141.691,168.526 149.400,166.113 151.234 C 165.292 151.858,164.381 152.575,164.088 152.828 C 163.796 153.081,162.251 154.289,160.656 155.513 C 159.061 156.737,157.696 157.808,157.624 157.894 C 157.502 158.038,151.088 163.075,145.919 167.086 C 143.321 169.102,141.909 170.231,141.005 171.015 L 140.330 171.600 200.000 171.598 L 259.670 171.596 258.746 170.797 C 257.782 169.964,248.827 162.876,245.272 160.132 C 241.895 157.526,232.485 150.137,232.343 149.980 C 232.271 149.900,231.201 149.068,229.967 148.130 C 228.733 147.192,227.663 146.355,227.591 146.269 C 227.518 146.183,226.389 145.288,225.083 144.278 C 223.776 143.269,221.809 141.730,220.712 140.859 C 214.579 135.987,211.106 133.346,210.825 133.343 C 210.680 133.341,208.304 135.116,205.545 137.286 C 202.785 139.456,200.290 141.234,200.000 141.236 C 199.710 141.239,198.094 140.145,196.409 138.805 C 190.750 134.305,189.467 133.333,189.188 133.336 C 189.036 133.337,187.545 134.419,185.875 135.740 " stroke="none" fill="#f2f2f2" fill-rule="evenodd"></path><path id="path2" d="M194.135 12.077 C 194.975 12.129,196.282 12.129,197.039 12.076 C 197.796 12.022,197.109 11.979,195.512 11.980 C 193.914 11.981,193.295 12.024,194.135 12.077 M204.114 11.976 C 204.175 12.029,205.531 12.134,207.129 12.211 C 208.988 12.300,209.653 12.271,208.977 12.131 C 207.944 11.916,203.897 11.788,204.114 11.976 M191.221 12.327 C 191.475 12.394,191.891 12.394,192.145 12.327 C 192.399 12.261,192.191 12.206,191.683 12.206 C 191.175 12.206,190.967 12.261,191.221 12.327 M183.102 12.937 C 182.204 13.098,182.165 13.130,182.838 13.149 C 183.274 13.161,184.106 13.073,184.686 12.952 C 186.068 12.667,184.688 12.653,183.102 12.937 M214.191 12.855 C 214.446 12.922,214.861 12.922,215.116 12.855 C 215.370 12.789,215.162 12.735,214.653 12.735 C 214.145 12.735,213.937 12.789,214.191 12.855 M178.878 13.729 C 178.545 13.872,178.496 13.956,178.746 13.956 C 178.964 13.956,179.380 13.854,179.670 13.729 C 180.003 13.586,180.052 13.502,179.802 13.502 C 179.584 13.502,179.168 13.605,178.878 13.729 M219.428 13.564 C 219.488 13.618,220.132 13.734,220.858 13.822 C 221.747 13.931,222.006 13.905,221.650 13.743 C 221.148 13.514,219.196 13.357,219.428 13.564 M174.785 14.534 C 174.496 14.729,174.603 14.754,175.182 14.624 C 176.152 14.407,176.363 14.256,175.688 14.261 C 175.409 14.264,175.003 14.386,174.785 14.534 M224.686 14.521 C 225.589 14.811,226.283 14.811,225.611 14.521 C 225.320 14.397,224.845 14.298,224.554 14.302 C 224.130 14.309,224.156 14.352,224.686 14.521 M228.119 15.314 C 229.022 15.603,229.716 15.603,229.043 15.314 C 228.752 15.189,228.277 15.090,227.987 15.094 C 227.562 15.101,227.588 15.144,228.119 15.314 M242.376 19.626 C 242.376 19.695,242.760 19.884,243.228 20.047 C 243.697 20.211,243.964 20.236,243.822 20.103 C 243.522 19.821,242.376 19.444,242.376 19.626 M154.521 20.602 C 153.637 20.958,153.803 21.138,154.719 20.819 C 155.155 20.667,155.512 20.495,155.512 20.436 C 155.512 20.280,155.190 20.333,154.521 20.602 M150.759 22.310 C 150.396 22.518,150.218 22.688,150.363 22.688 C 150.508 22.688,150.924 22.518,151.287 22.310 C 151.650 22.103,151.828 21.933,151.683 21.933 C 151.538 21.933,151.122 22.103,150.759 22.310 M263.234 29.934 C 263.234 29.996,263.657 30.296,264.174 30.601 C 264.691 30.906,265.040 31.036,264.950 30.890 C 264.773 30.604,263.234 29.747,263.234 29.934 M194.521 32.662 C 194.848 32.725,195.383 32.725,195.710 32.662 C 196.036 32.599,195.769 32.547,195.116 32.547 C 194.462 32.547,194.195 32.599,194.521 32.662 M204.290 32.662 C 204.617 32.725,205.152 32.725,205.479 32.662 C 205.805 32.599,205.538 32.547,204.884 32.547 C 204.231 32.547,203.964 32.599,204.290 32.662 M190.693 32.928 C 191.092 32.989,191.746 32.989,192.145 32.928 C 192.545 32.868,192.218 32.818,191.419 32.818 C 190.620 32.818,190.294 32.868,190.693 32.928 M207.855 32.928 C 208.254 32.989,208.908 32.989,209.307 32.928 C 209.706 32.868,209.380 32.818,208.581 32.818 C 207.782 32.818,207.455 32.868,207.855 32.928 M184.356 33.713 C 184.611 33.780,185.026 33.780,185.281 33.713 C 185.535 33.647,185.327 33.593,184.818 33.593 C 184.310 33.593,184.102 33.647,184.356 33.713 M214.719 33.713 C 214.974 33.780,215.389 33.780,215.644 33.713 C 215.898 33.647,215.690 33.593,215.182 33.593 C 214.673 33.593,214.465 33.647,214.719 33.713 M269.485 34.132 C 270.882 35.256,271.290 35.459,270.231 34.504 C 269.650 33.980,269.077 33.547,268.957 33.541 C 268.837 33.536,269.074 33.801,269.485 34.132 M125.017 37.991 C 124.145 38.691,123.195 39.540,122.904 39.877 C 122.453 40.402,125.328 38.125,126.459 37.063 C 127.280 36.292,126.531 36.774,125.017 37.991 M277.611 40.454 C 278.344 41.139,279.037 41.703,279.151 41.708 C 279.265 41.712,278.909 41.336,278.359 40.872 C 276.567 39.359,276.251 39.182,277.611 40.454 M193.333 39.786 C 193.587 39.852,194.003 39.852,194.257 39.786 C 194.512 39.720,194.304 39.665,193.795 39.665 C 193.287 39.665,193.079 39.720,193.333 39.786 M205.743 39.786 C 205.997 39.852,206.413 39.852,206.667 39.786 C 206.921 39.720,206.713 39.665,206.205 39.665 C 205.696 39.665,205.488 39.720,205.743 39.786 M190.036 40.055 C 190.365 40.118,190.840 40.115,191.092 40.049 C 191.345 39.983,191.076 39.932,190.495 39.935 C 189.914 39.938,189.708 39.992,190.036 40.055 M209.046 40.055 C 209.374 40.118,209.850 40.115,210.102 40.049 C 210.355 39.983,210.086 39.932,209.505 39.935 C 208.924 39.938,208.718 39.992,209.046 40.055 M118.966 43.179 C 118.397 43.682,117.981 44.138,118.042 44.194 C 118.102 44.250,118.627 43.835,119.208 43.272 C 120.515 42.005,120.362 41.946,118.966 43.179 M281.441 43.894 C 282.535 45.060,282.772 45.270,282.772 45.071 C 282.772 45.029,282.208 44.465,281.518 43.817 L 280.264 42.640 281.441 43.894 M115.110 46.931 L 112.607 49.505 115.182 47.002 C 116.597 45.625,117.756 44.467,117.756 44.428 C 117.756 44.236,117.435 44.540,115.110 46.931 M111.302 50.940 L 110.260 52.145 111.421 51.032 C 112.059 50.420,112.528 49.878,112.462 49.827 C 112.397 49.777,111.875 50.278,111.302 50.940 M289.537 52.148 C 290.370 53.090,291.099 53.861,291.157 53.861 C 291.370 53.861,288.703 50.726,288.368 50.582 C 288.179 50.501,288.705 51.205,289.537 52.148 M108.532 53.942 L 107.889 54.785 108.730 54.010 C 109.605 53.203,109.705 53.059,109.373 53.084 C 109.264 53.092,108.885 53.478,108.532 53.942 M291.221 54.208 C 291.221 54.253,291.607 54.640,292.079 55.066 L 292.937 55.842 292.162 54.983 C 291.439 54.184,291.221 54.004,291.221 54.208 M132.268 59.076 L 130.825 60.594 132.343 59.151 C 133.754 57.810,133.982 57.558,133.786 57.558 C 133.745 57.558,133.062 58.241,132.268 59.076 M267.459 59.010 C 268.248 59.809,268.952 60.462,269.025 60.462 C 269.097 60.462,268.512 59.809,267.723 59.010 C 266.934 58.211,266.229 57.558,266.157 57.558 C 266.084 57.558,266.670 58.211,267.459 59.010 M104.621 58.812 C 103.809 59.856,103.223 60.799,103.677 60.330 C 104.204 59.785,105.650 57.822,105.523 57.822 C 105.450 57.822,105.044 58.267,104.621 58.812 M296.911 61.188 C 297.439 61.950,297.924 62.574,297.988 62.574 C 298.204 62.574,297.601 61.657,296.773 60.726 C 296.022 59.882,296.034 59.922,296.911 61.188 M127.120 64.224 L 125.545 65.875 127.195 64.299 C 128.728 62.835,128.966 62.574,128.771 62.574 C 128.730 62.574,127.987 63.317,127.120 64.224 M272.607 64.158 C 273.469 65.030,274.234 65.743,274.307 65.743 C 274.380 65.743,273.733 65.030,272.871 64.158 C 272.009 63.287,271.244 62.574,271.172 62.574 C 271.099 62.574,271.745 63.287,272.607 64.158 M134.639 66.469 L 133.729 67.459 134.719 66.549 C 135.264 66.048,135.710 65.603,135.710 65.559 C 135.710 65.357,135.486 65.547,134.639 66.469 M265.083 66.403 C 265.575 66.911,266.038 67.327,266.110 67.327 C 266.183 67.327,265.839 66.911,265.347 66.403 C 264.854 65.894,264.391 65.479,264.319 65.479 C 264.246 65.479,264.590 65.894,265.083 66.403 M130.943 70.429 L 130.033 71.419 131.023 70.509 C 131.568 70.009,132.013 69.563,132.013 69.519 C 132.013 69.318,131.790 69.507,130.943 70.429 M268.779 70.363 C 269.271 70.871,269.734 71.287,269.807 71.287 C 269.879 71.287,269.536 70.871,269.043 70.363 C 268.550 69.855,268.088 69.439,268.015 69.439 C 267.943 69.439,268.286 69.855,268.779 70.363 M310.803 85.822 C 310.958 86.265,311.133 86.579,311.193 86.519 C 311.324 86.388,310.826 85.017,310.647 85.017 C 310.579 85.017,310.649 85.379,310.803 85.822 M312.340 89.757 C 312.478 90.239,312.664 90.706,312.753 90.794 C 313.001 91.042,312.570 89.407,312.314 89.127 C 312.190 88.991,312.201 89.275,312.340 89.757 M86.796 91.270 C 86.729 91.388,86.603 91.842,86.516 92.277 C 86.359 93.065,86.361 93.065,86.757 92.181 C 87.102 91.410,87.134 90.672,86.796 91.270 M140.371 91.287 C 140.304 91.396,167.137 91.485,200.000 91.485 C 232.863 91.485,259.696 91.396,259.629 91.287 C 259.469 91.028,140.531 91.028,140.371 91.287 M135.574 132.013 C 135.574 153.723,135.605 162.604,135.644 151.749 C 135.682 140.894,135.682 123.132,135.644 112.277 C 135.605 101.422,135.574 110.304,135.574 132.013 M264.290 132.066 C 264.218 153.805,264.248 171.501,264.357 171.392 C 264.467 171.282,264.526 153.496,264.489 131.867 L 264.422 92.541 264.290 132.066 M138.614 93.279 C 138.614 93.347,139.173 93.860,139.856 94.419 C 140.539 94.979,141.012 95.299,140.908 95.130 C 140.686 94.771,138.614 93.099,138.614 93.279 M85.201 96.040 C 84.996 96.404,84.707 97.823,84.871 97.659 C 85.067 97.463,85.548 95.842,85.410 95.842 C 85.356 95.842,85.262 95.931,85.201 96.040 M148.119 97.513 C 148.119 97.586,148.594 98.022,149.175 98.482 C 149.756 98.942,150.231 99.259,150.231 99.186 C 150.231 99.114,149.756 98.678,149.175 98.218 C 148.594 97.758,148.119 97.441,148.119 97.513 M84.400 98.658 C 84.304 98.755,84.232 99.081,84.241 99.384 C 84.257 99.890,84.278 99.883,84.511 99.302 C 84.769 98.655,84.716 98.343,84.400 98.658 M112.989 100.235 C 112.844 100.618,112.773 100.980,112.833 101.040 C 112.893 101.100,113.069 100.787,113.223 100.344 C 113.566 99.359,113.359 99.262,112.989 100.235 M286.777 100.344 C 286.931 100.787,287.107 101.100,287.167 101.040 C 287.297 100.909,286.799 99.538,286.621 99.538 C 286.552 99.538,286.622 99.900,286.777 100.344 M316.201 101.782 C 316.418 102.753,316.569 102.964,316.564 102.288 C 316.561 102.010,316.439 101.604,316.292 101.386 C 316.096 101.097,316.071 101.204,316.201 101.782 M316.993 105.215 C 317.210 106.185,317.361 106.396,317.356 105.721 C 317.353 105.442,317.231 105.036,317.084 104.818 C 316.888 104.529,316.863 104.636,316.993 105.215 M82.805 105.225 C 82.714 105.461,82.650 105.852,82.663 106.094 C 82.675 106.336,82.790 106.184,82.918 105.756 C 83.167 104.923,83.079 104.510,82.805 105.225 M103.529 106.975 C 103.512 107.217,103.430 107.633,103.346 107.899 C 103.202 108.358,103.210 108.358,103.496 107.912 C 103.662 107.654,103.744 107.238,103.679 106.988 C 103.571 106.580,103.557 106.578,103.529 106.975 M296.242 107.085 C 296.244 107.363,296.366 107.769,296.514 107.987 C 296.709 108.276,296.734 108.169,296.605 107.591 C 296.387 106.620,296.236 106.409,296.242 107.085 M317.804 109.043 C 317.891 109.696,318.004 110.281,318.057 110.341 C 318.255 110.570,318.104 108.887,317.881 108.383 C 317.725 108.030,317.699 108.250,317.804 109.043 M81.238 112.746 C 81.142 113.105,81.075 113.756,81.089 114.191 C 81.109 114.823,81.161 114.743,81.348 113.795 C 81.603 112.497,81.519 111.694,81.238 112.746 M235.380 113.692 L 234.323 114.637 235.446 113.798 C 236.411 113.076,236.760 112.728,236.502 112.743 C 236.465 112.745,235.960 113.172,235.380 113.692 M318.741 114.587 C 318.741 115.096,318.795 115.304,318.862 115.050 C 318.928 114.795,318.928 114.380,318.862 114.125 C 318.795 113.871,318.741 114.079,318.741 114.587 M80.435 118.738 C 80.344 119.287,80.285 120.389,80.303 121.188 C 80.330 122.392,80.374 122.238,80.562 120.284 C 80.796 117.850,80.725 116.984,80.435 118.738 M108.312 119.340 C 108.312 119.848,108.366 120.056,108.433 119.802 C 108.499 119.548,108.499 119.132,108.433 118.878 C 108.366 118.624,108.312 118.832,108.312 119.340 M291.546 119.340 C 291.546 119.848,291.601 120.056,291.667 119.802 C 291.734 119.548,291.734 119.132,291.667 118.878 C 291.601 118.624,291.546 118.832,291.546 119.340 M101.183 119.868 C 101.183 120.376,101.238 120.584,101.304 120.330 C 101.371 120.076,101.371 119.660,101.304 119.406 C 101.238 119.152,101.183 119.360,101.183 119.868 M298.675 119.868 C 298.675 120.376,298.729 120.584,298.796 120.330 C 298.862 120.076,298.862 119.660,298.796 119.406 C 298.729 119.152,298.675 119.360,298.675 119.868 M319.539 120.792 C 319.541 121.373,319.596 121.579,319.659 121.251 C 319.722 120.923,319.719 120.447,319.653 120.195 C 319.587 119.943,319.536 120.211,319.539 120.792 M174.257 121.266 C 174.257 121.333,174.816 121.846,175.499 122.406 C 176.182 122.966,176.656 123.286,176.552 123.117 C 176.330 122.758,174.257 121.086,174.257 121.266 M319.797 124.356 C 319.797 124.865,319.852 125.073,319.918 124.818 C 319.984 124.564,319.984 124.149,319.918 123.894 C 319.852 123.640,319.797 123.848,319.797 124.356 M80.061 124.620 C 80.061 125.129,80.116 125.337,80.182 125.083 C 80.248 124.828,80.248 124.413,80.182 124.158 C 80.116 123.904,80.061 124.112,80.061 124.620 M107.784 124.884 C 107.784 125.393,107.838 125.601,107.905 125.347 C 107.971 125.092,107.971 124.677,107.905 124.422 C 107.838 124.168,107.784 124.376,107.784 124.884 M292.074 124.884 C 292.074 125.393,292.129 125.601,292.195 125.347 C 292.262 125.092,292.262 124.677,292.195 124.422 C 292.129 124.168,292.074 124.376,292.074 124.884 M100.661 125.809 C 100.664 126.389,100.718 126.596,100.781 126.268 C 100.844 125.939,100.842 125.464,100.775 125.211 C 100.709 124.959,100.658 125.228,100.661 125.809 M299.208 125.809 C 299.211 126.389,299.265 126.596,299.329 126.268 C 299.392 125.939,299.389 125.464,299.323 125.211 C 299.257 124.959,299.206 125.228,299.208 125.809 M107.572 132.013 C 107.572 135.281,107.610 136.617,107.656 134.983 C 107.702 133.350,107.702 130.677,107.656 129.043 C 107.610 127.409,107.572 128.746,107.572 132.013 M292.390 132.013 C 292.390 135.281,292.428 136.617,292.474 134.983 C 292.521 133.350,292.521 130.677,292.474 129.043 C 292.428 127.409,292.390 128.746,292.390 132.013 M79.803 128.977 C 79.805 129.558,79.860 129.764,79.923 129.436 C 79.986 129.107,79.983 128.632,79.917 128.380 C 79.851 128.127,79.800 128.396,79.803 128.977 M100.433 132.013 C 100.433 133.974,100.475 134.776,100.526 133.795 C 100.577 132.815,100.577 131.211,100.526 130.231 C 100.475 129.251,100.433 130.053,100.433 132.013 M299.509 132.013 C 299.509 133.974,299.551 134.776,299.602 133.795 C 299.653 132.815,299.653 131.211,299.602 130.231 C 299.551 129.251,299.509 130.053,299.509 132.013 M320.100 133.069 C 320.100 134.739,320.143 135.422,320.195 134.587 C 320.248 133.752,320.248 132.386,320.195 131.551 C 320.143 130.716,320.100 131.399,320.100 133.069 M188.481 133.531 C 188.153 133.949,188.163 133.959,188.577 133.634 C 188.830 133.436,189.222 133.346,189.449 133.433 C 189.687 133.524,189.794 133.480,189.701 133.330 C 189.452 132.927,188.882 133.021,188.481 133.531 M210.131 133.508 C 209.801 133.908,209.820 133.915,210.350 133.585 C 210.875 133.257,211.038 133.305,212.066 134.089 L 213.201 134.956 212.167 134.012 C 211.011 132.958,210.658 132.870,210.131 133.508 M100.661 138.218 C 100.664 138.799,100.718 139.005,100.781 138.677 C 100.844 138.348,100.842 137.873,100.775 137.621 C 100.709 137.368,100.658 137.637,100.661 138.218 M299.208 138.218 C 299.211 138.799,299.265 139.005,299.329 138.677 C 299.392 138.348,299.389 137.873,299.323 137.621 C 299.257 137.368,299.206 137.637,299.208 138.218 M107.784 139.142 C 107.784 139.650,107.838 139.858,107.905 139.604 C 107.971 139.350,107.971 138.934,107.905 138.680 C 107.838 138.426,107.784 138.634,107.784 139.142 M292.074 139.142 C 292.074 139.650,292.129 139.858,292.195 139.604 C 292.262 139.350,292.262 138.934,292.195 138.680 C 292.129 138.426,292.074 138.634,292.074 139.142 M319.803 139.538 C 319.805 140.119,319.860 140.325,319.923 139.997 C 319.986 139.668,319.983 139.193,319.917 138.941 C 319.851 138.688,319.800 138.957,319.803 139.538 M80.343 142.838 C 80.343 143.637,80.393 143.964,80.453 143.564 C 80.514 143.165,80.514 142.512,80.453 142.112 C 80.393 141.713,80.343 142.040,80.343 142.838 M319.393 144.131 C 319.285 145.205,319.249 146.136,319.313 146.199 C 319.487 146.374,319.799 143.554,319.687 142.819 C 319.633 142.467,319.500 143.057,319.393 144.131 M101.183 144.158 C 101.183 144.667,101.238 144.875,101.304 144.620 C 101.371 144.366,101.371 143.950,101.304 143.696 C 101.238 143.442,101.183 143.650,101.183 144.158 M298.675 144.158 C 298.675 144.667,298.729 144.875,298.796 144.620 C 298.862 144.366,298.862 143.950,298.796 143.696 C 298.729 143.442,298.675 143.650,298.675 144.158 M108.312 144.686 C 108.312 145.195,108.366 145.403,108.433 145.149 C 108.499 144.894,108.499 144.479,108.433 144.224 C 108.366 143.970,108.312 144.178,108.312 144.686 M291.546 144.686 C 291.546 145.195,291.601 145.403,291.667 145.149 C 291.734 144.894,291.734 144.479,291.667 144.224 C 291.601 143.970,291.546 144.178,291.546 144.686 M81.075 149.725 C 81.085 150.366,81.198 151.129,81.325 151.419 C 81.473 151.755,81.501 151.369,81.402 150.363 C 81.214 148.448,81.049 148.127,81.075 149.725 M158.944 153.435 L 157.756 154.511 158.874 153.672 C 159.847 152.942,160.471 152.326,160.214 152.351 C 160.169 152.355,159.597 152.843,158.944 153.435 M81.867 154.477 C 81.877 154.828,81.993 155.353,82.125 155.644 C 82.291 156.012,82.315 155.852,82.203 155.116 C 82.016 153.890,81.840 153.555,81.867 154.477 M103.395 156.436 C 103.613 157.406,103.764 157.617,103.758 156.942 C 103.756 156.663,103.634 156.257,103.486 156.040 C 103.291 155.750,103.266 155.857,103.395 156.436 M296.402 156.182 C 296.312 156.418,296.248 156.809,296.260 157.051 C 296.273 157.294,296.388 157.141,296.516 156.713 C 296.765 155.880,296.676 155.467,296.402 156.182 M317.126 157.932 C 317.109 158.174,317.027 158.590,316.944 158.856 C 316.800 159.315,316.808 159.315,317.094 158.870 C 317.259 158.611,317.342 158.195,317.276 157.945 C 317.169 157.537,317.154 157.535,317.126 157.932 M82.644 158.306 C 82.647 158.584,82.769 158.990,82.916 159.208 C 83.112 159.497,83.137 159.390,83.007 158.812 C 82.790 157.841,82.639 157.630,82.644 158.306 M316.334 161.629 C 316.317 161.871,316.235 162.287,316.152 162.553 C 316.008 163.011,316.015 163.012,316.301 162.566 C 316.467 162.307,316.550 161.891,316.484 161.642 C 316.377 161.233,316.362 161.232,316.334 161.629 M112.883 163.498 C 112.982 163.825,113.171 164.209,113.304 164.350 C 113.437 164.492,113.412 164.225,113.249 163.756 C 112.914 162.797,112.605 162.579,112.883 163.498 M286.777 163.683 C 286.622 164.126,286.552 164.488,286.621 164.488 C 286.799 164.488,287.297 163.117,287.167 162.986 C 287.107 162.926,286.931 163.240,286.777 163.683 M315.542 164.401 C 315.525 164.570,315.435 164.927,315.341 165.193 C 315.208 165.568,315.243 165.609,315.497 165.375 C 315.678 165.208,315.768 164.852,315.699 164.583 C 315.630 164.313,315.559 164.231,315.542 164.401 M314.983 166.404 C 314.983 166.442,314.867 166.879,314.724 167.377 C 314.581 167.874,314.566 168.170,314.690 168.035 C 314.960 167.740,315.316 166.337,315.121 166.337 C 315.045 166.337,314.983 166.367,314.983 166.404 M257.426 169.583 C 257.426 169.650,257.985 170.163,258.668 170.723 C 259.351 171.283,259.824 171.603,259.720 171.434 C 259.498 171.075,257.426 169.403,257.426 169.583 M86.499 171.749 C 86.592 172.185,86.786 172.660,86.928 172.805 C 87.099 172.979,87.122 172.843,86.994 172.409 C 86.682 171.343,86.304 170.840,86.499 171.749 M87.273 174.059 C 87.371 174.386,87.561 174.770,87.694 174.911 C 87.826 175.053,87.801 174.786,87.638 174.317 C 87.304 173.358,86.995 173.140,87.273 174.059 M88.857 178.020 C 88.955 178.347,89.145 178.730,89.278 178.872 C 89.411 179.014,89.386 178.746,89.222 178.278 C 88.888 177.319,88.579 177.101,88.857 178.020 M130.957 193.663 C 131.450 194.172,131.912 194.587,131.985 194.587 C 132.057 194.587,131.714 194.172,131.221 193.663 C 130.729 193.155,130.266 192.739,130.193 192.739 C 130.121 192.739,130.464 193.155,130.957 193.663 M268.765 193.729 L 267.855 194.719 268.845 193.810 C 269.766 192.963,269.956 192.739,269.755 192.739 C 269.711 192.739,269.265 193.185,268.765 193.729 M134.653 197.624 C 135.146 198.132,135.609 198.548,135.681 198.548 C 135.754 198.548,135.410 198.132,134.917 197.624 C 134.425 197.116,133.962 196.700,133.890 196.700 C 133.817 196.700,134.161 197.116,134.653 197.624 M265.068 197.690 L 264.158 198.680 265.149 197.770 C 266.070 196.923,266.260 196.700,266.058 196.700 C 266.014 196.700,265.569 197.145,265.068 197.690 M127.129 199.868 C 127.991 200.739,128.756 201.452,128.828 201.452 C 128.901 201.452,128.255 200.739,127.393 199.868 C 126.531 198.997,125.766 198.284,125.693 198.284 C 125.620 198.284,126.267 198.997,127.129 199.868 M272.599 199.934 L 271.023 201.584 272.673 200.008 C 273.581 199.142,274.323 198.399,274.323 198.358 C 274.323 198.163,274.063 198.401,272.599 199.934 M296.132 203.851 C 295.160 205.171,294.480 206.180,294.620 206.094 C 295.074 205.812,298.257 201.452,298.007 201.452 C 297.947 201.452,297.103 202.532,296.132 203.851 M132.277 205.017 C 133.066 205.815,133.771 206.469,133.843 206.469 C 133.916 206.469,133.330 205.815,132.541 205.017 C 131.752 204.218,131.048 203.564,130.975 203.564 C 130.903 203.564,131.488 204.218,132.277 205.017 M267.450 205.083 L 266.007 206.601 267.525 205.158 C 268.935 203.817,269.164 203.564,268.968 203.564 C 268.927 203.564,268.243 204.248,267.450 205.083 M107.938 209.159 C 108.377 209.695,108.855 210.347,109.001 210.609 C 109.148 210.871,109.333 211.020,109.412 210.940 C 109.492 210.860,109.014 210.208,108.350 209.490 C 107.686 208.772,107.500 208.623,107.938 209.159 M289.898 211.489 C 288.848 212.653,288.153 213.531,288.351 213.442 C 288.711 213.279,292.136 209.373,291.919 209.373 C 291.856 209.373,290.947 210.325,289.898 211.489 M111.683 213.465 C 112.472 214.264,113.177 214.917,113.249 214.917 C 113.322 214.917,112.736 214.264,111.947 213.465 C 111.158 212.667,110.454 212.013,110.381 212.013 C 110.308 212.013,110.894 212.667,111.683 213.465 M284.615 217.228 L 282.112 219.802 284.686 217.299 C 287.077 214.974,287.381 214.653,287.190 214.653 C 287.150 214.653,285.992 215.812,284.615 217.228 M117.793 219.604 C 118.126 220.003,118.818 220.679,119.331 221.105 C 119.854 221.540,119.630 221.221,118.821 220.379 C 117.279 218.775,116.802 218.415,117.793 219.604 M281.039 220.528 L 280.264 221.386 281.122 220.611 C 281.922 219.888,282.102 219.670,281.898 219.670 C 281.852 219.670,281.466 220.056,281.039 220.528 M278.061 223.129 C 277.575 223.571,277.219 223.973,277.269 224.024 C 277.320 224.075,277.805 223.710,278.347 223.213 C 278.889 222.717,279.245 222.314,279.138 222.318 C 279.031 222.322,278.546 222.687,278.061 223.129 M190.036 224.081 C 190.365 224.144,190.840 224.142,191.092 224.076 C 191.345 224.010,191.076 223.958,190.495 223.961 C 189.914 223.964,189.708 224.018,190.036 224.081 M209.046 224.081 C 209.374 224.144,209.850 224.142,210.102 224.076 C 210.355 224.010,210.086 223.958,209.505 223.961 C 208.924 223.964,208.718 224.018,209.046 224.081 M193.333 224.340 C 193.587 224.407,194.003 224.407,194.257 224.340 C 194.512 224.274,194.304 224.220,193.795 224.220 C 193.287 224.220,193.079 224.274,193.333 224.340 M205.743 224.340 C 205.997 224.407,206.413 224.407,206.667 224.340 C 206.921 224.274,206.713 224.220,206.205 224.220 C 205.696 224.220,205.488 224.274,205.743 224.340 M275.295 225.459 C 273.132 227.249,272.842 227.634,274.731 226.207 C 276.118 225.161,277.235 224.127,276.930 224.173 C 276.876 224.181,276.140 224.760,275.295 225.459 M128.845 228.743 C 128.845 228.816,129.201 229.129,129.637 229.439 C 130.073 229.749,130.429 229.944,130.429 229.871 C 130.429 229.798,130.073 229.485,129.637 229.175 C 129.201 228.865,128.845 228.670,128.845 228.743 M184.356 230.413 C 184.611 230.479,185.026 230.479,185.281 230.413 C 185.535 230.347,185.327 230.292,184.818 230.292 C 184.310 230.292,184.102 230.347,184.356 230.413 M214.719 230.413 C 214.974 230.479,215.389 230.479,215.644 230.413 C 215.898 230.347,215.690 230.292,215.182 230.292 C 214.673 230.292,214.465 230.347,214.719 230.413 M190.693 231.212 C 191.092 231.273,191.746 231.273,192.145 231.212 C 192.545 231.152,192.218 231.102,191.419 231.102 C 190.620 231.102,190.294 231.152,190.693 231.212 M207.855 231.212 C 208.254 231.273,208.908 231.273,209.307 231.212 C 209.706 231.152,209.380 231.102,208.581 231.102 C 207.782 231.102,207.455 231.152,207.855 231.212 M194.521 231.473 C 194.848 231.536,195.383 231.536,195.710 231.473 C 196.036 231.411,195.769 231.359,195.116 231.359 C 194.462 231.359,194.195 231.411,194.521 231.473 M204.290 231.473 C 204.617 231.536,205.152 231.536,205.479 231.473 C 205.805 231.411,205.538 231.359,204.884 231.359 C 204.231 231.359,203.964 231.411,204.290 231.473 M263.960 233.551 C 263.416 233.907,262.970 234.264,262.970 234.342 C 262.970 234.542,264.535 233.603,264.871 233.201 C 265.253 232.745,265.103 232.803,263.960 233.551 M150.759 241.716 C 151.122 241.924,151.538 242.093,151.683 242.093 C 151.828 242.093,151.650 241.924,151.287 241.716 C 150.924 241.509,150.508 241.339,150.363 241.339 C 150.218 241.339,150.396 241.509,150.759 241.716 M153.927 243.057 C 153.927 243.235,155.299 243.733,155.430 243.602 C 155.490 243.542,155.176 243.367,154.733 243.213 C 154.290 243.058,153.927 242.988,153.927 243.057 M156.040 243.849 C 156.040 244.027,157.411 244.525,157.542 244.394 C 157.602 244.334,157.288 244.159,156.845 244.005 C 156.402 243.850,156.040 243.780,156.040 243.849 M170.957 248.713 C 171.248 248.838,171.723 248.936,172.013 248.932 C 172.438 248.926,172.412 248.883,171.881 248.713 C 170.978 248.424,170.284 248.424,170.957 248.713 M174.389 249.505 C 174.680 249.630,175.155 249.728,175.446 249.724 C 175.870 249.718,175.844 249.675,175.314 249.505 C 174.411 249.216,173.717 249.216,174.389 249.505 M224.422 249.505 C 223.879 249.679,223.855 249.720,224.290 249.739 C 224.581 249.751,224.997 249.646,225.215 249.505 C 225.677 249.206,225.356 249.206,224.422 249.505 M178.878 250.297 C 179.168 250.422,179.584 250.524,179.802 250.524 C 180.052 250.524,180.003 250.440,179.670 250.297 C 179.380 250.172,178.964 250.070,178.746 250.070 C 178.496 250.070,178.545 250.154,178.878 250.297 M220.198 250.297 L 219.274 250.492 220.198 250.508 C 220.706 250.517,221.360 250.422,221.650 250.297 L 222.178 250.070 221.650 250.086 C 221.360 250.095,220.706 250.190,220.198 250.297 M183.234 251.103 C 184.828 251.386,186.076 251.361,184.686 251.074 C 184.106 250.954,183.274 250.864,182.838 250.873 C 182.244 250.887,182.343 250.944,183.234 251.103 M214.191 251.271 C 214.446 251.338,214.861 251.338,215.116 251.271 C 215.370 251.205,215.162 251.150,214.653 251.150 C 214.145 251.150,213.937 251.205,214.191 251.271 M191.221 251.799 C 191.475 251.866,191.891 251.866,192.145 251.799 C 192.399 251.733,192.191 251.678,191.683 251.678 C 191.175 251.678,190.967 251.733,191.221 251.799 M206.073 251.881 L 203.960 252.048 205.941 252.082 C 207.030 252.100,208.396 252.016,208.977 251.896 L 210.033 251.678 209.109 251.696 C 208.601 251.706,207.234 251.789,206.073 251.881 M194.135 252.077 C 194.975 252.129,196.282 252.129,197.039 252.076 C 197.796 252.022,197.109 251.979,195.512 251.980 C 193.914 251.981,193.295 252.024,194.135 252.077 " stroke="none" fill="#f9a695" fill-rule="evenodd"></path><path id="path3" d="M193.601 12.335 C 194.002 12.395,194.596 12.394,194.921 12.331 C 195.246 12.268,194.917 12.219,194.191 12.221 C 193.465 12.223,193.200 12.274,193.601 12.335 M205.878 12.332 C 206.206 12.395,206.681 12.393,206.934 12.327 C 207.186 12.261,206.917 12.209,206.337 12.212 C 205.756 12.215,205.549 12.269,205.878 12.332 M188.845 12.591 C 189.099 12.658,189.515 12.658,189.769 12.591 C 190.023 12.525,189.815 12.470,189.307 12.470 C 188.799 12.470,188.591 12.525,188.845 12.591 M186.733 12.855 C 186.987 12.922,187.403 12.922,187.657 12.855 C 187.911 12.789,187.703 12.735,187.195 12.735 C 186.686 12.735,186.479 12.789,186.733 12.855 M212.079 12.855 C 212.333 12.922,212.749 12.922,213.003 12.855 C 213.257 12.789,213.050 12.735,212.541 12.735 C 212.033 12.735,211.825 12.789,212.079 12.855 M197.308 32.408 C 198.877 32.455,201.372 32.455,202.853 32.408 C 204.333 32.361,203.050 32.323,200.000 32.323 C 196.950 32.323,195.739 32.362,197.308 32.408 M186.868 33.190 C 187.196 33.253,187.671 33.251,187.924 33.185 C 188.176 33.119,187.908 33.067,187.327 33.070 C 186.746 33.073,186.539 33.127,186.868 33.190 M212.214 33.190 C 212.543 33.253,213.018 33.251,213.270 33.185 C 213.523 33.119,213.254 33.067,212.673 33.070 C 212.092 33.073,211.886 33.127,212.214 33.190 M178.350 34.587 C 178.017 34.730,177.968 34.814,178.218 34.814 C 178.436 34.814,178.851 34.712,179.142 34.587 C 179.475 34.444,179.524 34.361,179.274 34.361 C 179.056 34.361,178.640 34.463,178.350 34.587 M220.858 34.587 C 221.149 34.712,221.564 34.814,221.782 34.814 C 222.032 34.814,221.983 34.730,221.650 34.587 C 221.360 34.463,220.944 34.361,220.726 34.361 C 220.476 34.361,220.525 34.444,220.858 34.587 M174.917 35.380 C 174.585 35.523,174.536 35.606,174.785 35.606 C 175.003 35.606,175.419 35.504,175.710 35.380 C 176.042 35.237,176.091 35.153,175.842 35.153 C 175.624 35.153,175.208 35.255,174.917 35.380 M224.290 35.380 C 224.581 35.504,224.997 35.606,225.215 35.606 C 225.464 35.606,225.415 35.523,225.083 35.380 C 224.792 35.255,224.376 35.153,224.158 35.153 C 223.909 35.153,223.958 35.237,224.290 35.380 M196.113 39.798 C 196.734 39.853,197.684 39.853,198.225 39.796 C 198.766 39.739,198.257 39.694,197.096 39.694 C 195.934 39.695,195.492 39.742,196.113 39.798 M201.921 39.798 C 202.542 39.853,203.493 39.853,204.033 39.796 C 204.574 39.739,204.066 39.694,202.904 39.694 C 201.743 39.695,201.300 39.742,201.921 39.798 M192.809 40.057 C 193.210 40.118,193.804 40.117,194.129 40.054 C 194.454 39.991,194.125 39.942,193.399 39.944 C 192.673 39.945,192.408 39.997,192.809 40.057 M206.010 40.057 C 206.412 40.118,207.006 40.117,207.330 40.054 C 207.655 39.991,207.327 39.942,206.601 39.944 C 205.875 39.945,205.609 39.997,206.010 40.057 M280.660 43.432 C 281.449 44.231,282.154 44.884,282.226 44.884 C 282.299 44.884,281.713 44.231,280.924 43.432 C 280.135 42.634,279.431 41.980,279.358 41.980 C 279.285 41.980,279.871 42.634,280.660 43.432 M119.062 43.498 L 118.152 44.488 119.142 43.579 C 119.686 43.078,120.132 42.633,120.132 42.588 C 120.132 42.387,119.909 42.577,119.062 43.498 M115.106 47.195 L 113.663 48.713 115.182 47.270 C 116.592 45.929,116.821 45.677,116.625 45.677 C 116.583 45.677,115.900 46.360,115.106 47.195 M284.884 47.393 C 285.377 47.901,285.840 48.317,285.912 48.317 C 285.985 48.317,285.641 47.901,285.149 47.393 C 284.656 46.884,284.193 46.469,284.121 46.469 C 284.048 46.469,284.392 46.884,284.884 47.393 M111.275 51.287 L 110.231 52.409 111.353 51.366 C 112.397 50.395,112.597 50.165,112.397 50.165 C 112.354 50.165,111.849 50.670,111.275 51.287 M288.053 50.776 C 288.053 50.821,288.439 51.207,288.911 51.634 L 289.769 52.409 288.994 51.551 C 288.271 50.751,288.053 50.572,288.053 50.776 M131.871 59.208 L 130.561 60.594 131.947 59.284 C 132.710 58.563,133.333 57.939,133.333 57.898 C 133.333 57.701,133.089 57.920,131.871 59.208 M267.855 59.142 C 268.570 59.868,269.214 60.462,269.287 60.462 C 269.360 60.462,268.834 59.868,268.119 59.142 C 267.404 58.416,266.759 57.822,266.687 57.822 C 266.614 57.822,267.140 58.416,267.855 59.142 M127.119 63.960 L 125.809 65.347 127.195 64.036 C 127.957 63.316,128.581 62.692,128.581 62.650 C 128.581 62.453,128.336 62.672,127.119 63.960 M272.607 63.894 C 273.322 64.620,273.967 65.215,274.040 65.215 C 274.112 65.215,273.586 64.620,272.871 63.894 C 272.156 63.168,271.512 62.574,271.439 62.574 C 271.366 62.574,271.892 63.168,272.607 63.894 M134.382 66.997 L 132.673 68.779 134.455 67.070 C 136.111 65.483,136.358 65.215,136.164 65.215 C 136.123 65.215,135.322 66.017,134.382 66.997 M265.347 66.931 C 266.282 67.875,267.107 68.647,267.179 68.647 C 267.252 68.647,266.546 67.875,265.611 66.931 C 264.675 65.987,263.850 65.215,263.778 65.215 C 263.705 65.215,264.411 65.987,265.347 66.931 M135.310 132.013 C 135.310 153.723,135.341 162.604,135.380 151.749 C 135.418 140.894,135.418 123.132,135.380 112.277 C 135.341 101.422,135.310 110.304,135.310 132.013 M264.683 132.013 C 264.683 153.723,264.714 162.604,264.752 151.749 C 264.791 140.894,264.791 123.132,264.752 112.277 C 264.714 101.422,264.683 110.304,264.683 132.013 M238.416 108.273 L 237.228 109.350 238.482 108.373 C 239.581 107.516,239.907 107.193,239.670 107.195 C 239.634 107.196,239.069 107.681,238.416 108.273 M81.117 116.172 C 81.117 116.680,81.172 116.888,81.238 116.634 C 81.305 116.380,81.305 115.964,81.238 115.710 C 81.172 115.455,81.117 115.663,81.117 116.172 M100.673 123.036 C 100.673 123.835,100.723 124.162,100.783 123.762 C 100.844 123.363,100.844 122.710,100.783 122.310 C 100.723 121.911,100.673 122.238,100.673 123.036 M299.221 123.036 C 299.221 123.835,299.271 124.162,299.331 123.762 C 299.392 123.363,299.392 122.710,299.331 122.310 C 299.271 121.911,299.221 122.238,299.221 123.036 M319.547 123.960 C 319.549 124.686,319.601 124.952,319.661 124.551 C 319.722 124.149,319.720 123.555,319.658 123.231 C 319.595 122.906,319.545 123.234,319.547 123.960 M80.340 124.488 C 80.342 125.215,80.393 125.480,80.453 125.079 C 80.514 124.678,80.513 124.083,80.450 123.759 C 80.387 123.434,80.338 123.762,80.340 124.488 M100.397 126.073 C 100.400 126.653,100.454 126.860,100.517 126.532 C 100.580 126.203,100.578 125.728,100.511 125.475 C 100.445 125.223,100.394 125.492,100.397 126.073 M299.473 126.073 C 299.475 126.653,299.530 126.860,299.593 126.532 C 299.656 126.203,299.653 125.728,299.587 125.475 C 299.521 125.223,299.470 125.492,299.473 126.073 M218.086 127.032 L 216.898 128.109 218.016 127.269 C 218.989 126.539,219.613 125.924,219.356 125.948 C 219.311 125.953,218.739 126.441,218.086 127.032 M319.830 128.185 C 319.829 129.492,319.874 130.060,319.929 129.447 C 319.984 128.834,319.985 127.765,319.930 127.071 C 319.876 126.377,319.830 126.878,319.830 128.185 M80.094 128.449 C 80.093 129.756,80.138 130.324,80.193 129.711 C 80.248 129.098,80.249 128.029,80.194 127.335 C 80.140 126.641,80.095 127.142,80.094 128.449 M107.789 127.129 C 107.792 127.710,107.846 127.916,107.910 127.588 C 107.973 127.259,107.970 126.784,107.904 126.532 C 107.838 126.279,107.786 126.548,107.789 127.129 M292.080 127.129 C 292.083 127.710,292.137 127.916,292.200 127.588 C 292.263 127.259,292.261 126.784,292.195 126.532 C 292.129 126.279,292.077 126.548,292.080 127.129 M80.095 135.710 C 80.095 137.089,80.140 137.653,80.194 136.964 C 80.248 136.274,80.248 135.145,80.194 134.455 C 80.140 133.766,80.095 134.330,80.095 135.710 M319.828 135.710 C 319.828 136.944,319.874 137.449,319.929 136.832 C 319.985 136.215,319.985 135.205,319.929 134.587 C 319.874 133.970,319.828 134.475,319.828 135.710 M107.789 136.898 C 107.792 137.479,107.846 137.685,107.910 137.357 C 107.973 137.028,107.970 136.553,107.904 136.301 C 107.838 136.048,107.786 136.317,107.789 136.898 M292.080 136.898 C 292.083 137.479,292.137 137.685,292.200 137.357 C 292.263 137.028,292.261 136.553,292.195 136.301 C 292.129 136.048,292.077 136.317,292.080 136.898 M100.397 137.954 C 100.400 138.535,100.454 138.741,100.517 138.413 C 100.580 138.084,100.578 137.609,100.511 137.357 C 100.445 137.104,100.394 137.373,100.397 137.954 M299.473 137.954 C 299.475 138.535,299.530 138.741,299.593 138.413 C 299.656 138.084,299.653 137.609,299.587 137.357 C 299.521 137.104,299.470 137.373,299.473 137.954 M319.554 139.802 C 319.555 140.673,319.605 140.998,319.663 140.523 C 319.722 140.049,319.721 139.336,319.661 138.939 C 319.600 138.542,319.552 138.931,319.554 139.802 M80.331 139.802 C 80.334 140.383,80.388 140.589,80.451 140.261 C 80.514 139.933,80.512 139.457,80.445 139.205 C 80.379 138.952,80.328 139.221,80.331 139.802 M176.238 140.095 L 175.182 141.040 176.304 140.201 C 177.269 139.478,177.618 139.130,177.360 139.146 C 177.323 139.148,176.818 139.575,176.238 140.095 M100.673 140.990 C 100.673 141.789,100.723 142.116,100.783 141.716 C 100.844 141.317,100.844 140.663,100.783 140.264 C 100.723 139.865,100.673 140.191,100.673 140.990 M299.221 140.990 C 299.221 141.789,299.271 142.116,299.331 141.716 C 299.392 141.317,299.392 140.663,299.331 140.264 C 299.271 139.865,299.221 140.191,299.221 140.990 M199.306 140.792 C 199.707 141.303,200.277 141.397,200.526 140.993 C 200.619 140.843,200.512 140.799,200.274 140.891 C 200.047 140.978,199.655 140.887,199.403 140.690 C 198.988 140.364,198.978 140.374,199.306 140.792 M318.741 147.855 C 318.741 148.363,318.795 148.571,318.862 148.317 C 318.928 148.063,318.928 147.647,318.862 147.393 C 318.795 147.139,318.741 147.347,318.741 147.855 M233.399 147.669 C 233.399 147.736,233.958 148.249,234.641 148.809 C 235.324 149.368,235.798 149.688,235.694 149.520 C 235.472 149.161,233.399 147.489,233.399 147.669 M140.594 168.082 L 139.538 169.027 140.660 168.188 C 141.626 167.465,141.974 167.117,141.716 167.133 C 141.680 167.135,141.175 167.562,140.594 168.082 M134.389 197.096 C 135.325 198.040,136.150 198.812,136.222 198.812 C 136.295 198.812,135.589 198.040,134.653 197.096 C 133.718 196.152,132.893 195.380,132.821 195.380 C 132.748 195.380,133.454 196.152,134.389 197.096 M265.339 197.162 L 263.630 198.944 265.413 197.235 C 266.393 196.296,267.195 195.494,267.195 195.453 C 267.195 195.259,266.926 195.506,265.339 197.162 M127.129 200.132 C 127.844 200.858,128.488 201.452,128.561 201.452 C 128.634 201.452,128.108 200.858,127.393 200.132 C 126.678 199.406,126.033 198.812,125.960 198.812 C 125.888 198.812,126.414 199.406,127.129 200.132 M272.597 200.198 L 271.287 201.584 272.673 200.274 C 273.436 199.553,274.059 198.930,274.059 198.888 C 274.059 198.691,273.815 198.910,272.597 200.198 M131.881 204.884 C 132.596 205.611,133.241 206.205,133.313 206.205 C 133.386 206.205,132.860 205.611,132.145 204.884 C 131.430 204.158,130.786 203.564,130.713 203.564 C 130.640 203.564,131.166 204.158,131.881 204.884 M267.845 204.950 L 266.535 206.337 267.921 205.026 C 269.209 203.809,269.428 203.564,269.231 203.564 C 269.189 203.564,268.565 204.188,267.845 204.950 M111.683 213.201 C 112.472 214.000,113.177 214.653,113.249 214.653 C 113.322 214.653,112.736 214.000,111.947 213.201 C 111.158 212.403,110.454 211.749,110.381 211.749 C 110.308 211.749,110.894 212.403,111.683 213.201 M288.696 212.607 L 287.921 213.465 288.779 212.690 C 289.579 211.967,289.758 211.749,289.554 211.749 C 289.509 211.749,289.123 212.135,288.696 212.607 M284.611 216.964 L 283.168 218.482 284.686 217.039 C 286.097 215.698,286.326 215.446,286.130 215.446 C 286.088 215.446,285.405 216.129,284.611 216.964 M114.851 216.634 C 115.344 217.142,115.807 217.558,115.879 217.558 C 115.952 217.558,115.608 217.142,115.116 216.634 C 114.623 216.125,114.160 215.710,114.088 215.710 C 114.015 215.710,114.359 216.125,114.851 216.634 M118.801 220.264 C 119.895 221.430,120.132 221.639,120.132 221.441 C 120.132 221.399,119.568 220.834,118.878 220.187 L 117.624 219.010 118.801 220.264 M280.396 220.858 C 279.755 221.512,279.289 222.046,279.362 222.046 C 279.435 222.046,280.019 221.512,280.660 220.858 C 281.301 220.205,281.767 219.670,281.694 219.670 C 281.621 219.670,281.037 220.205,280.396 220.858 M192.809 224.084 C 193.210 224.145,193.804 224.143,194.129 224.080 C 194.454 224.018,194.125 223.968,193.399 223.970 C 192.673 223.972,192.408 224.023,192.809 224.084 M206.010 224.084 C 206.412 224.145,207.006 224.143,207.330 224.080 C 207.655 224.018,207.327 223.968,206.601 223.970 C 205.875 223.972,205.609 224.023,206.010 224.084 M196.113 224.352 C 196.734 224.408,197.684 224.407,198.225 224.350 C 198.766 224.294,198.257 224.248,197.096 224.249 C 195.934 224.250,195.492 224.296,196.113 224.352 M201.921 224.352 C 202.542 224.408,203.493 224.407,204.033 224.350 C 204.574 224.294,204.066 224.248,202.904 224.249 C 201.743 224.250,201.300 224.296,201.921 224.352 M174.917 228.647 C 175.208 228.772,175.624 228.874,175.842 228.874 C 176.091 228.874,176.042 228.790,175.710 228.647 C 175.419 228.522,175.003 228.420,174.785 228.420 C 174.536 228.420,174.585 228.504,174.917 228.647 M224.290 228.647 C 223.958 228.790,223.909 228.874,224.158 228.874 C 224.376 228.874,224.792 228.772,225.083 228.647 C 225.415 228.504,225.464 228.420,225.215 228.420 C 224.997 228.420,224.581 228.522,224.290 228.647 M178.350 229.439 C 178.640 229.564,179.056 229.666,179.274 229.666 C 179.524 229.666,179.475 229.582,179.142 229.439 C 178.851 229.314,178.436 229.212,178.218 229.212 C 177.968 229.212,178.017 229.296,178.350 229.439 M220.858 229.439 C 220.525 229.582,220.476 229.666,220.726 229.666 C 220.944 229.666,221.360 229.564,221.650 229.439 C 221.983 229.296,222.032 229.212,221.782 229.212 C 221.564 229.212,221.149 229.314,220.858 229.439 M186.868 230.946 C 187.196 231.009,187.671 231.007,187.924 230.940 C 188.176 230.874,187.908 230.823,187.327 230.826 C 186.746 230.829,186.539 230.883,186.868 230.946 M212.214 230.946 C 212.543 231.009,213.018 231.007,213.270 230.940 C 213.523 230.874,213.254 230.823,212.673 230.826 C 212.092 230.829,211.886 230.883,212.214 230.946 M197.308 231.748 C 198.877 231.795,201.372 231.795,202.853 231.748 C 204.333 231.701,203.050 231.663,200.000 231.663 C 196.950 231.663,195.739 231.702,197.308 231.748 M222.178 249.769 C 221.505 250.058,222.200 250.058,223.102 249.769 C 223.633 249.599,223.659 249.556,223.234 249.550 C 222.944 249.546,222.469 249.644,222.178 249.769 M186.733 251.271 C 186.987 251.338,187.403 251.338,187.657 251.271 C 187.911 251.205,187.703 251.150,187.195 251.150 C 186.686 251.150,186.479 251.205,186.733 251.271 M212.079 251.271 C 212.333 251.338,212.749 251.338,213.003 251.271 C 213.257 251.205,213.050 251.150,212.541 251.150 C 212.033 251.150,211.825 251.205,212.079 251.271 M188.845 251.535 C 189.099 251.602,189.515 251.602,189.769 251.535 C 190.023 251.469,189.815 251.414,189.307 251.414 C 188.799 251.414,188.591 251.469,188.845 251.535 M193.601 251.807 C 194.002 251.867,194.596 251.866,194.921 251.803 C 195.246 251.740,194.917 251.691,194.191 251.693 C 193.465 251.695,193.200 251.746,193.601 251.807 M205.878 251.804 C 206.206 251.867,206.681 251.865,206.934 251.799 C 207.186 251.732,206.917 251.681,206.337 251.684 C 205.756 251.687,205.549 251.741,205.878 251.804 " stroke="none" fill="#fc846b" fill-rule="evenodd"></path><path id="path4" d="M198.749 12.068 C 199.077 12.131,199.553 12.129,199.805 12.063 C 200.057 11.997,199.789 11.945,199.208 11.948 C 198.627 11.951,198.421 12.005,198.749 12.068 M201.380 12.072 C 201.849 12.130,202.681 12.131,203.228 12.074 C 203.776 12.017,203.393 11.969,202.376 11.968 C 201.360 11.967,200.912 12.013,201.380 12.072 M100.391 127.789 C 100.391 128.297,100.446 128.505,100.512 128.251 C 100.578 127.997,100.578 127.581,100.512 127.327 C 100.446 127.073,100.391 127.281,100.391 127.789 M299.467 127.789 C 299.467 128.297,299.522 128.505,299.588 128.251 C 299.654 127.997,299.654 127.581,299.588 127.327 C 299.522 127.073,299.467 127.281,299.467 127.789 M100.391 136.238 C 100.391 136.746,100.446 136.954,100.512 136.700 C 100.578 136.446,100.578 136.030,100.512 135.776 C 100.446 135.521,100.391 135.729,100.391 136.238 M299.467 136.238 C 299.467 136.746,299.522 136.954,299.588 136.700 C 299.654 136.446,299.654 136.030,299.588 135.776 C 299.522 135.521,299.467 135.729,299.467 136.238 M286.982 214.587 L 286.073 215.578 287.063 214.668 C 287.984 213.821,288.174 213.597,287.973 213.597 C 287.928 213.597,287.483 214.043,286.982 214.587 M198.749 252.068 C 199.077 252.131,199.553 252.129,199.805 252.063 C 200.057 251.997,199.789 251.945,199.208 251.948 C 198.627 251.951,198.421 252.005,198.749 252.068 M201.380 252.072 C 201.849 252.130,202.681 252.131,203.228 252.074 C 203.776 252.017,203.393 251.969,202.376 251.968 C 201.360 251.967,200.912 252.013,201.380 252.072 " stroke="none" fill="#f88c74" fill-rule="evenodd"></path></g></svg>